<?xml version="1.0" standalone="no"?><!DOCTYPE svg PUBLIC "-//W3C//DTD SVG 1.1//EN" "http://www.w3.org/Graphics/SVG/1.1/DTD/svg11.dtd"><svg t="1716720900419" class="icon" viewBox="0 0 1024 1024" version="1.1" xmlns="http://www.w3.org/2000/svg" p-id="5427" xmlns:xlink="http://www.w3.org/1999/xlink" width="256" height="256"><path d="M85.333333 234.666667a170.666667 170.666667 0 0 1 170.666667-170.666667h512a170.666667 170.666667 0 0 1 170.666667 170.666667v554.666666a170.666667 170.666667 0 0 1-170.666667 170.666667H256a170.666667 170.666667 0 0 1-170.666667-170.666667V234.666667z" fill="#E3DCD6" p-id="5428"></path><path d="M85.333333 234.666667a170.666667 170.666667 0 0 1 170.666667-170.666667h512a170.666667 170.666667 0 0 1 170.666667 170.666667v554.666666a170.666667 170.666667 0 0 1-170.666667 170.666667H256a170.666667 170.666667 0 0 1-170.666667-170.666667V234.666667z" fill="#E3DCD6" p-id="5429"></path><path d="M85.333333 234.666667a170.666667 170.666667 0 0 1 170.666667-170.666667h512a170.666667 170.666667 0 0 1 170.666667 170.666667v490.666666a170.666667 170.666667 0 0 1-170.666667 170.666667H256a170.666667 170.666667 0 0 1-170.666667-170.666667V234.666667z" fill="#E3DCD6" p-id="5430"></path><path d="M85.333333 234.666667a170.666667 170.666667 0 0 1 170.666667-170.666667h512a170.666667 170.666667 0 0 1 170.666667 170.666667v490.666666a170.666667 170.666667 0 0 1-170.666667 170.666667H256a170.666667 170.666667 0 0 1-170.666667-170.666667V234.666667z" fill="#FDF6EF" p-id="5431"></path><path d="M85.333333 320h853.333334v362.666667H85.333333V320z" fill="#E3DCD6" p-id="5432"></path><path d="M85.333333 320h853.333334v320H85.333333V320z" fill="#EF4D43" p-id="5433"></path><path d="M283.157333 320A286.656 286.656 0 0 0 234.666667 480c0 59.2 17.856 114.24 48.490666 160h479.018667A286.656 286.656 0 0 0 810.666667 480c0-59.2-17.856-114.24-48.490667-160H283.157333z" fill="#A51A12" p-id="5434"></path><path d="M522.666667 480m-245.333334 0a245.333333 245.333333 0 1 0 490.666667 0 245.333333 245.333333 0 1 0-490.666667 0Z" fill="#FFFFFF" p-id="5435"></path><path d="M704 480a181.333333 181.333333 0 1 1-362.666667 0 181.333333 181.333333 0 0 1 362.666667 0z" fill="#1B3D46" p-id="5436"></path><path d="M618.666667 426.666667a42.666667 42.666667 0 1 1-85.333334 0 42.666667 42.666667 0 0 1 85.333334 0z" fill="#FFFFFF" fill-opacity=".4" p-id="5437"></path><path d="M256 192m-42.666667 0a42.666667 42.666667 0 1 0 85.333334 0 42.666667 42.666667 0 1 0-85.333334 0Z" fill="#EF4D43" p-id="5438"></path><path d="M746.666667 149.333333m21.333333 0l42.666667 0q21.333333 0 21.333333 21.333334l0 42.666666q0 21.333333-21.333333 21.333334l-42.666667 0q-21.333333 0-21.333333-21.333334l0-42.666666q0-21.333333 21.333333-21.333334Z" fill="#1B3D46" p-id="5439"></path><path d="M768 170.666667h42.666667v42.666666h-42.666667z" fill="#EF4D43" p-id="5440"></path></svg>